<svg width="144" height="25" viewBox="0 0 144 25" fill="none" xmlns="http://www.w3.org/2000/svg">
<path d="M3.85699 24.255V21.0494H4.86785C5.37177 21.0494 5.77854 20.9887 6.08817 20.8672C6.39781 20.7397 6.64369 20.5546 6.82583 20.3117C7.01404 20.0628 7.17189 19.7532 7.29939 19.3828L7.52706 18.7727L0.751549 5.34914H4.83143L9.22094 14.5289L12.891 5.34914H16.9162L10.4868 20.339C10.1772 21.0312 9.80985 21.6747 9.38486 22.2697C8.96594 22.8647 8.42864 23.3443 7.77294 23.7086C7.11725 24.0729 6.27942 24.255 5.25945 24.255H3.85699ZM19.8054 5.34914H23.6394V11.3597C23.6394 12.0761 23.7638 12.6528 24.0128 13.09C24.2617 13.521 24.6472 13.8337 25.1693 14.028C25.6975 14.2162 26.3745 14.3103 27.2002 14.3103C27.4916 14.3103 27.8346 14.3012 28.2292 14.283C28.6239 14.2587 29.0306 14.2253 29.4496 14.1828C29.8746 14.1403 30.2753 14.0887 30.6517 14.028C31.0281 13.9673 31.3408 13.8974 31.5897 13.8185V16.9331C31.3347 17.0181 31.0159 17.094 30.6335 17.1607C30.257 17.2215 29.8594 17.2761 29.4405 17.3247C29.0215 17.3672 28.6148 17.4006 28.2201 17.4248C27.8255 17.4491 27.4855 17.4613 27.2002 17.4613C25.7006 17.4613 24.3953 17.2488 23.2842 16.8238C22.1732 16.3927 21.3141 15.7279 20.707 14.8294C20.1059 13.9308 19.8054 12.7743 19.8054 11.3597V5.34914ZM30.9067 5.34914H34.7589V24H30.9067V5.34914ZM41.8736 24H37.648L44.0866 5.34914H49.1682L55.5977 24H51.3721L46.7002 9.61115H46.5545L41.8736 24ZM41.6095 16.669H51.5906V19.7471H41.6095V16.669ZM73.4221 11.8788H69.4333C69.3604 11.3627 69.2117 10.9043 68.987 10.5036C68.7624 10.0968 68.474 9.75079 68.1219 9.46544C67.7697 9.18009 67.363 8.96153 66.9016 8.80975C66.4462 8.65796 65.9514 8.58207 65.4171 8.58207C64.4518 8.58207 63.6109 8.82189 62.8945 9.30152C62.1781 9.77507 61.6226 10.4672 61.228 11.3779C60.8333 12.2825 60.636 13.3814 60.636 14.6746C60.636 16.0042 60.8333 17.1213 61.228 18.0259C61.6287 18.9305 62.1872 19.6135 62.9036 20.0749C63.62 20.5364 64.4488 20.7671 65.3898 20.7671C65.918 20.7671 66.4067 20.6972 66.856 20.5576C67.3114 20.418 67.7151 20.2146 68.0672 19.9474C68.4194 19.6742 68.7108 19.3434 68.9415 18.9548C69.1783 18.5662 69.3422 18.123 69.4333 17.6252L73.4221 17.6434C73.3189 18.4995 73.0608 19.3251 72.648 20.1205C72.2412 20.9097 71.6918 21.617 70.9996 22.2424C70.3136 22.8616 69.494 23.3534 68.5408 23.7177C67.5937 24.0759 66.5221 24.255 65.3261 24.255C63.6625 24.255 62.1751 23.8786 60.8637 23.1257C59.5584 22.3729 58.5263 21.2831 57.7674 19.8564C57.0145 18.4296 56.6381 16.7024 56.6381 14.6746C56.6381 12.6407 57.0206 10.9104 57.7856 9.48365C58.5506 8.05691 59.5887 6.97016 60.9001 6.2234C62.2115 5.47056 63.6868 5.09414 65.3261 5.09414C66.4067 5.09414 67.4085 5.24592 68.3313 5.54949C69.2602 5.85305 70.0829 6.29625 70.7993 6.87909C71.5157 7.45586 72.0985 8.16316 72.5478 9.00099C73.0032 9.83882 73.2946 10.7981 73.4221 11.8788ZM75.5394 8.60029V5.34914H90.8572V8.60029H85.1472V24H81.2494V8.60029H75.5394ZM93.3798 24V5.34914H100.847C102.22 5.34914 103.364 5.55252 104.281 5.9593C105.197 6.36607 105.887 6.9307 106.348 7.65317C106.809 8.36958 107.04 9.19527 107.04 10.1302C107.04 10.8588 106.894 11.4993 106.603 12.0518C106.312 12.5982 105.911 13.0475 105.401 13.3996C104.897 13.7457 104.32 13.9916 103.671 14.1373V14.3194C104.381 14.3498 105.046 14.5501 105.665 14.9205C106.29 15.2908 106.797 15.8099 107.186 16.4777C107.574 17.1395 107.769 17.9288 107.769 18.8455C107.769 19.8351 107.523 20.7185 107.031 21.4956C106.545 22.2667 105.826 22.8768 104.873 23.3261C103.919 23.7754 102.745 24 101.348 24H93.3798ZM97.323 20.7762H100.538C101.637 20.7762 102.438 20.5667 102.942 20.1478C103.446 19.7228 103.698 19.1582 103.698 18.4539C103.698 17.9379 103.573 17.4825 103.324 17.0879C103.076 16.6933 102.72 16.3836 102.259 16.159C101.804 15.9344 101.26 15.822 100.629 15.822H97.323V20.7762ZM97.323 13.1537H100.246C100.787 13.1537 101.266 13.0596 101.685 12.8714C102.11 12.6771 102.444 12.4039 102.687 12.0518C102.936 11.6997 103.06 11.2777 103.06 10.7859C103.06 10.112 102.821 9.56865 102.341 9.15581C101.867 8.74296 101.193 8.53654 100.319 8.53654H97.323V13.1537ZM112.347 24.255V21.0494H113.358C113.862 21.0494 114.269 20.9887 114.578 20.8672C114.888 20.7397 115.134 20.5546 115.316 20.3117C115.504 20.0628 115.662 19.7532 115.789 19.3828L116.017 18.7727L109.242 5.34914H113.322L117.711 14.5289L121.381 5.34914H125.406L118.977 20.339C118.667 21.0312 118.3 21.6747 117.875 22.2697C117.456 22.8647 116.919 23.3443 116.263 23.7086C115.607 24.0729 114.77 24.255 113.75 24.255H112.347ZM127.54 5.34914H131.474V17.0788H131.629L139.688 5.34914H143.14V24H139.196V12.2612H139.06L130.955 24H127.54V5.34914ZM137.156 0.467854H139.861C139.855 1.57282 139.445 2.46226 138.632 3.13617C137.824 3.81008 136.731 4.14703 135.353 4.14703C133.969 4.14703 132.873 3.81008 132.066 3.13617C131.258 2.46226 130.855 1.57282 130.855 0.467854H133.541C133.535 0.886771 133.669 1.26319 133.942 1.59711C134.221 1.93103 134.692 2.09798 135.353 2.09798C135.997 2.09798 136.458 1.93406 136.738 1.60621C137.017 1.27837 137.156 0.898913 137.156 0.467854Z" fill="black"/>
</svg>
