<svg width="245" height="38" viewBox="0 0 245 38" fill="none" xmlns="http://www.w3.org/2000/svg">
<path fill-rule="evenodd" clip-rule="evenodd" d="M1.384 0.16016H243.616C243.978 0.159363 244.325 0.302111 244.581 0.557132C244.837 0.812153 244.982 1.15844 244.983 1.52002V36.3501C244.984 36.5299 244.949 36.7078 244.88 36.874C244.812 37.0403 244.711 37.1916 244.584 37.3189C244.457 37.4461 244.306 37.5469 244.14 37.6157C243.974 37.6846 243.796 37.7204 243.616 37.7202H1.384C1.2042 37.7204 1.02613 37.6846 0.860026 37.6157C0.693918 37.5469 0.543036 37.4461 0.416033 37.3189C0.28903 37.1916 0.188407 37.0403 0.119932 36.874C0.0514576 36.7078 0.0164776 36.5299 0.0170041 36.3501V1.52002C0.0180636 1.15844 0.162652 0.812153 0.418986 0.557132C0.675319 0.302111 1.02242 0.159363 1.384 0.16016Z" fill="white"/>
</svg>
