<svg width="64" height="64" viewBox="0 0 64 64" fill="none" xmlns="http://www.w3.org/2000/svg">
<rect width="64" height="64" rx="32" fill="white"/>
<path fill-rule="evenodd" clip-rule="evenodd" d="M32.0106 22.7556C26.9029 22.7556 22.759 26.8978 22.759 32.0035C22.759 37.1092 26.9029 41.2514 32.0106 41.2514C37.1182 41.2514 41.2621 37.1092 41.2621 32.0035C41.2621 26.8978 37.1182 22.7556 32.0106 22.7556ZM32.0106 38.0023C28.6969 38.0023 26.0094 35.3159 26.0094 32.0035C26.0094 28.6912 28.6969 26.0047 32.0106 26.0047C35.3242 26.0047 38.0117 28.6912 38.0117 32.0035C38.0117 35.3159 35.3242 38.0023 32.0106 38.0023Z" fill="black"/>
<path d="M41.6279 24.5489C42.8169 24.5489 43.7878 23.5854 43.7878 22.3898C43.7878 21.2013 42.8169 20.2308 41.6279 20.2308C40.4389 20.2308 39.468 21.1943 39.468 22.3898C39.468 23.5784 40.4319 24.5489 41.6279 24.5489Z" fill="black"/>
<path fill-rule="evenodd" clip-rule="evenodd" d="M32.0106 14C27.121 14 26.5089 14.0211 24.5882 14.1055C22.6746 14.1899 21.359 14.4993 20.2193 14.9424C19.0303 15.4065 18.0242 16.0184 17.0252 17.024C16.0192 18.0227 15.4071 19.0283 14.9427 20.2098C14.4995 21.3561 14.19 22.6642 14.1055 24.5771C14.0211 26.504 14 27.1158 14 32.0035C14 36.8912 14.0211 37.503 14.1055 39.4229C14.19 41.3358 14.4995 42.6509 14.9427 43.7902C15.4071 44.9787 16.0192 45.9844 17.0252 46.983C18.0242 47.9816 19.0303 48.6005 20.2122 49.0576C21.359 49.5007 22.6676 49.8101 24.5812 49.8945C26.5019 49.9789 27.1139 50 32.0035 50C36.8931 50 37.5052 49.9789 39.4258 49.8945C41.3395 49.8101 42.6551 49.5007 43.7948 49.0576C44.9767 48.6005 45.9828 47.9816 46.9818 46.983C47.9808 45.9844 48.6 44.9787 49.0573 43.7972C49.5005 42.6509 49.81 41.3428 49.8945 39.43C49.9789 37.5101 50 36.8982 50 32.0105C50 27.1229 49.9789 26.511 49.8945 24.5911C49.81 22.6783 49.5005 21.3632 49.0573 20.2239C48.614 19.0283 48.002 18.0227 46.9959 17.024C45.9969 16.0254 44.9908 15.4065 43.8089 14.9494C42.6621 14.5063 41.3535 14.1969 39.4399 14.1125C37.5122 14.0211 36.9001 14 32.0106 14ZM32.0106 17.242C36.8227 17.242 37.3926 17.2631 39.2851 17.3475C41.044 17.4249 41.9937 17.7203 42.6269 17.9664C43.4641 18.2899 44.0692 18.6837 44.6953 19.3096C45.3285 19.9426 45.7155 20.5403 46.0391 21.3772C46.2853 22.0102 46.5808 22.9666 46.6582 24.7177C46.7426 26.6165 46.7637 27.1862 46.7637 31.9895C46.7637 36.7998 46.7426 37.3694 46.6582 39.2612C46.5808 41.0193 46.2853 41.9687 46.0391 42.6017C45.7155 43.4386 45.3215 44.0434 44.6953 44.6693C44.0621 45.3022 43.4641 45.689 42.6269 46.0125C41.9937 46.2586 41.0369 46.554 39.2851 46.6314C37.3856 46.7158 36.8157 46.7369 32.0106 46.7369C27.1984 46.7369 26.6285 46.7158 24.736 46.6314C22.9771 46.554 22.0274 46.2586 21.3942 46.0125C20.557 45.689 19.9519 45.2952 19.3258 44.6693C18.6926 44.0363 18.3056 43.4386 17.982 42.6017C17.7358 41.9687 17.4403 41.0123 17.3629 39.2612C17.2785 37.3624 17.2574 36.7927 17.2574 31.9895C17.2574 27.1791 17.2785 26.6095 17.3629 24.7177C17.4403 22.9596 17.7358 22.0102 17.982 21.3772C18.3056 20.5403 18.6996 19.9355 19.3258 19.3096C19.959 18.6767 20.557 18.2899 21.3942 17.9664C22.0274 17.7203 22.9842 17.4249 24.736 17.3475C26.6285 17.2631 27.1984 17.242 32.0106 17.242Z" fill="black"/>
</svg>
